<?xml version="1.0" encoding="utf-8"?>
<!-- Generator: Adobe Illustrator 25.2.0, SVG Export Plug-In . SVG Version: 6.00 Build 0)  -->
<svg version="1.1" id="layer" xmlns="http://www.w3.org/2000/svg" xmlns:xlink="http://www.w3.org/1999/xlink" x="0px" y="0px"
	 viewBox="0 0 300 300" style="enable-background:new 0 0 300 300;" xml:space="preserve">
<style type="text/css">
	.st0{fill:#FE8657;}
	.st1{fill-rule:evenodd;clip-rule:evenodd;fill:#FCC667;}
</style>
<g id="star">
	<path id="svg_25" class="st0" d="M149.2,285.7c-4,0.2-7.7-2-9.6-5.5l0,0l-7.2-13.8c-0.1-0.2-0.3-0.3-0.5-0.4l-15.4-2.6
		c-3.8-0.6-6.9-3.3-8.1-7c-1.2-3.6-0.2-7.6,2.5-10.3l11-10.9c0.1-0.2,0.1-0.4,0-0.6l-2.2-15.4c-1.1-5.5,2.4-11,8-12.1
		c2.4-0.5,5-0.1,7.2,1.1l14,6.9c0.2,0.1,0.4,0.1,0.6,0l14-6.9c5.1-2.4,11.2-0.2,13.6,5c0.8,1.8,1.1,3.8,0.9,5.7l-2.3,15.4
		c-0.1,0.2-0.1,0.4,0,0.6l11,11.1c4,4,3.9,10.6-0.1,14.5c-1.5,1.5-3.4,2.5-5.5,2.8l-15.4,2.6c-0.2,0-0.4,0.2-0.5,0.4l-7.2,13.8
		C156.1,283.4,152.9,285.5,149.2,285.7z M148.6,275.8c0.2,0.4,0.7,0.5,1.1,0.2c0.1-0.1,0.2-0.1,0.2-0.2l7.2-13.9
		c1.5-2.8,4.2-4.8,7.4-5.4l15.4-2.6c0.3,0,0.5-0.2,0.5-0.5c0.1-0.2,0.1-0.5,0-0.8l-11-11.1c-2.3-2.3-3.3-5.5-2.8-8.7l1.7-15.4
		c0.1-0.3-0.1-0.6-0.3-0.7c-0.2-0.1-0.5-0.1-0.7,0l-13.8,6.9c-2.9,1.4-6.3,1.4-9.1,0l-14-6.9c-0.2-0.1-0.5-0.1-0.7,0
		c-0.2,0.2-0.3,0.4-0.3,0.7l2.3,15.5c0.5,3.2-0.6,6.4-2.8,8.7l-11,11.1c-0.1,0.2-0.1,0.5,0,0.7c0.1,0.3,0.3,0.4,0.6,0.5l15.4,2.6
		c3.2,0.5,5.9,2.5,7.4,5.4C141.3,261.9,148.6,275.8,148.6,275.8z"/>
	<path id="svg_26" class="st0" d="M64.1,216c-3.8,0-7.4-2.1-9.1-5.5l-7.2-13.6c-0.1-0.2-0.3-0.3-0.5-0.4l-15.4-2.6
		c-5.6-1-9.4-6.4-8.3-12c0.4-2,1.3-3.9,2.8-5.4l10.9-11.2c0.1-0.2,0.1-0.4,0-0.6l-2.3-15.4c-0.5-3.8,1.2-7.6,4.4-9.8
		c3.1-2.2,7.2-2.6,10.7-0.9l14,6.9c0.2,0.1,0.4,0.1,0.6,0l14-6.9c5.1-2.5,11.3-0.4,13.8,4.7c0.9,1.9,1.3,4,1,6.1l-2.3,15.4
		c-0.1,0.2-0.1,0.4,0,0.6l11,11.1c4,4,4,10.5-0.1,14.5c-1.4,1.4-3.2,2.4-5.2,2.8l-15.4,2.6c-0.2,0-0.4,0.2-0.5,0.4l-7.2,13.8
		C71.6,214.1,68,216.1,64.1,216z M45,146.9c-0.1,0-0.3,0-0.4,0c-0.2,0.2-0.3,0.4-0.3,0.7l2.5,15.8c0.4,3.2-0.6,6.3-2.8,8.6l-11,11.1
		c-0.1,0.2-0.1,0.5,0,0.7c0.1,0.3,0.3,0.5,0.6,0.5L49,187c3.2,0.5,5.9,2.5,7.4,5.4l7,14.1l0,0c0.2,0.4,0.7,0.5,1.1,0.2
		c0.1-0.1,0.2-0.1,0.2-0.2l7.2-13.9c1.5-2.9,4.2-4.8,7.4-5.4l15.4-2.6c0.3,0,0.5-0.2,0.5-0.5c0.1-0.2,0.1-0.5,0-0.7l-11-11.1
		c-2.4-2.3-3.5-5.6-3-8.9l2.3-15.4c0-0.3-0.1-0.5-0.3-0.7c-0.2-0.1-0.5-0.1-0.7,0l-14,6.9c-2.9,1.4-6.3,1.4-9.1,0l-14-7.1
		C45.6,147.2,45,146.9,45,146.9z"/>
	<path id="svg_27" class="st0" d="M228.3,168.9c-3.8,0-7.3-2.1-9.1-5.5l0,0l-7.2-13.9c-0.1-0.2-0.3-0.3-0.5-0.4l-15.4-2.6
		c-5.6-0.9-9.4-6.1-8.5-11.7c0.3-2.1,1.3-4.1,2.8-5.6l10.7-10.9c0.4-0.4,0.5-0.6,0.4-0.9l-2.3-15.4c-0.8-5.6,3.1-10.8,8.7-11.7
		c2.1-0.3,4.2,0,6.1,1l14,7.2c0.2,0.1,0.5,0.1,0.7,0l14-7c5.1-2.5,11.3-0.4,13.8,4.7c0.9,1.9,1.3,4,1,6.1l-2.3,15.4
		c-0.1,0.2-0.1,0.4,0,0.6l10.9,11.1c4,4,4,10.5-0.1,14.5c-1.5,1.5-3.5,2.5-5.6,2.8l-15.4,2.4c-0.2,0.1-0.4,0.2-0.5,0.4l-7.2,13.9
		C235.4,166.7,232,168.8,228.3,168.9z M227.6,158.9c0.2,0.3,0.6,0.5,1,0.3c0.1-0.1,0.2-0.2,0.3-0.3l7.2-13.8
		c1.5-2.9,4.2-4.9,7.4-5.4l15.4-2.6c0.3,0,0.5-0.2,0.6-0.5c0.1-0.2,0.1-0.5,0-0.7l-11.1-11.1c-2.3-2.3-3.3-5.5-2.8-8.7l2.2-15.4
		c0.1-0.3-0.1-0.5-0.3-0.7c-0.2-0.1-0.5-0.1-0.7,0l-14,7c-2.9,1.4-6.3,1.4-9.2,0l-14-7c-0.2-0.1-0.5-0.1-0.7,0
		c-0.2,0.1-0.3,0.4-0.3,0.7l2.3,15.4c0.5,3.2-0.6,6.4-2.8,8.7l-11.1,11.1c-0.3,0.3-0.3,0.7,0,1c0.1,0.1,0.2,0.2,0.4,0.2l15.4,2.6
		c3.2,0.5,5.9,2.5,7.4,5.4L227.6,158.9z"/>
</g>
<g id="small">
	<path id="svg_4" class="st1" d="M226.6,243.8h-2.2c-2.6,0-4.8,2.1-4.8,4.8c0,2.6,2.1,4.8,4.8,4.8h2.2v2.2c0,2.6,2.1,4.8,4.8,4.8
		c2.6,0,4.8-2.1,4.8-4.8v-2.2h2.2c2.6,0,4.8-2.1,4.8-4.8c0-2.6-2.1-4.8-4.8-4.8h-2.2v-2.2c0-2.6-2.1-4.8-4.8-4.8
		c-2.6,0-4.8,2.1-4.8,4.8V243.8z"/>
	<path id="svg_5" class="st1" d="M73.1,237H71c-2.6,0-4.8,2.1-4.8,4.8c0,2.6,2.1,4.8,4.8,4.8h2.2v2.2c0,2.6,2.1,4.8,4.8,4.8
		s4.8-2.1,4.8-4.8v-2.2h2.2c2.6,0,4.8-2.1,4.8-4.8c0-2.6-2.1-4.8-4.8-4.8h-2.2v-2.2c0-2.6-2.1-4.8-4.8-4.8s-4.8,2.1-4.8,4.8V237z"/>
	<path id="svg_7" class="st1" d="M207.1,194.1H205c-2.6,0-4.8,2.1-4.8,4.8s2.1,4.8,4.8,4.8h2.2v2.2c0,2.6,2.1,4.8,4.8,4.8
		c2.6,0,4.8-2.1,4.8-4.8v-2.2h2.2c2.6,0,4.8-2.1,4.8-4.8s-2.1-4.8-4.8-4.8h-2.2V192c0-2.6-2.1-4.8-4.8-4.8c-2.6,0-4.8,2.1-4.8,4.8
		V194.1z"/>
	<path id="svg_11" class="st1" d="M253.7,168.6h-2.2c-2.6,0-4.8,2.1-4.8,4.8s2.1,4.8,4.8,4.8h2.2v2.2c0,2.6,2.1,4.8,4.8,4.8
		c2.6,0,4.8-2.1,4.8-4.8v-2.2h2.2c2.6,0,4.8-2.1,4.8-4.8s-2.1-4.8-4.8-4.8h-2.2v-2.2c0-2.6-2.1-4.8-4.8-4.8c-2.6,0-4.8,2.1-4.8,4.8
		V168.6z"/>
	<path id="svg_20" class="st1" d="M126.3,73.8h-2.2c-2.6,0-4.8,2.1-4.8,4.8c0,2.6,2.1,4.8,4.8,4.8h2.2v2.2c0,2.6,2.1,4.8,4.8,4.8
		s4.8-2.1,4.8-4.8v-2.2h2.2c2.6,0,4.8-2.1,4.8-4.8c0-2.6-2.1-4.8-4.8-4.8h-2.2v-2.2c0-2.6-2.1-4.8-4.8-4.8s-4.8,2.1-4.8,4.8V73.8z"
		/>
	<path id="svg_23" class="st1" d="M19,54.6h-2.2c-2.6,0-4.8,2.1-4.8,4.8c0,2.6,2.1,4.8,4.8,4.8H19v2.2c0,2.6,2.1,4.8,4.8,4.8
		s4.8-2.1,4.8-4.8v-2.2h2.2c2.6,0,4.8-2.1,4.8-4.8c0-2.6-2.1-4.8-4.8-4.8h-2.2v-2.2c0-2.6-2.1-4.8-4.8-4.8S19,49.8,19,52.4V54.6z"/>
	<path id="svg_24" class="st1" d="M271.4,34h-2.2c-2.6,0-4.8,2.1-4.8,4.8s2.1,4.8,4.8,4.8h2.2v2.2c0,2.6,2.1,4.8,4.8,4.8
		c2.6,0,4.8-2.1,4.8-4.8v-2.2h2.2c2.6,0,4.8-2.1,4.8-4.8c0-2.6-2.1-4.8-4.8-4.8H281v-2.2c0-2.6-2.1-4.8-4.8-4.8
		c-2.6,0-4.8,2.1-4.8,4.8C271.4,31.8,271.4,34,271.4,34z"/>
	<path id="svg_28" class="st1" d="M166.4,24.3h-2.2c-2.6,0-4.8,2.1-4.8,4.8s2.1,4.8,4.8,4.8h2.2V36c0,2.6,2.1,4.8,4.8,4.8
		s4.8-2.1,4.8-4.8v-2.2h2.2c2.6,0,4.8-2.1,4.8-4.8s-2.1-4.8-4.8-4.8H176v-2.2c0-2.6-2.1-4.8-4.8-4.8s-4.8,2.1-4.8,4.8V24.3z"/>
	<path id="svg_29" class="st1" d="M93.7,18.7h-2.2c-2.6,0-4.8,2.1-4.8,4.8s2.1,4.8,4.8,4.8h2.2v2.2c0,2.6,2.1,4.8,4.8,4.8
		c2.6,0,4.8-2.1,4.8-4.8v-2.2h2.2c2.6,0,4.8-2.1,4.8-4.8s-2.1-4.8-4.8-4.8h-2.2v-2.2c0-2.6-2.1-4.8-4.8-4.8c-2.6,0-4.8,2.1-4.8,4.8
		V18.7z"/>
</g>
<g id="rail">
	<path id="svg_6" class="st1" d="M154,203.6v-54.5c0-2.6-2.1-4.8-4.8-4.8c-2.6,0-4.8,2.1-4.8,4.8v54.5c0,2.6,2.1,4.8,4.8,4.8
		C151.9,208.4,154,206.2,154,203.6z"/>
	<path id="svg_8" class="st1" d="M135.3,194.4v-21.6c0-2.6-2.1-4.8-4.8-4.8c-2.6,0-4.8,2.1-4.8,4.8v21.6c0,2.6,2.1,4.8,4.8,4.8
		C133.2,199.2,135.3,197,135.3,194.4z"/>
	<path id="svg_9" class="st1" d="M172.2,194.4v-12.1c0-2.6-2.1-4.8-4.8-4.8c-2.6,0-4.8,2.1-4.8,4.8v12.1c0,2.6,2.1,4.8,4.8,4.8
		C170.1,199.2,172.2,197,172.2,194.4z"/>
	<path id="svg_10" class="st1" d="M172.2,160.4v-8.2c0-2.6-2.1-4.8-4.8-4.8c-2.6,0-4.8,2.1-4.8,4.8v8.2c0,2.6,2.1,4.8,4.8,4.8
		C170.1,165.2,172.2,163.1,172.2,160.4z"/>
	<path id="svg_12" class="st1" d="M68.9,131.9V77.5c0-2.6-2.1-4.8-4.8-4.8c-2.6,0-4.8,2.1-4.8,4.8v54.4c0,2.6,2.1,4.8,4.8,4.8
		C66.8,136.7,68.9,134.5,68.9,131.9z"/>
	<path id="svg_13" class="st1" d="M154,126v-11.8c0-2.6-2.1-4.8-4.8-4.8c-2.6,0-4.8,2.1-4.8,4.8V126c0,2.6,2.1,4.8,4.8,4.8
		C151.9,130.7,154,128.6,154,126z"/>
	<path id="svg_14" class="st1" d="M87.3,122.9v-12.1c0-2.6-2.1-4.8-4.8-4.8c-2.6,0-4.8,2.1-4.8,4.8v12.1c0,2.6,2.1,4.8,4.8,4.8
		C85.2,127.6,87.3,125.5,87.3,122.9z"/>
	<path id="svg_15" class="st1" d="M50.5,122.9v-21.6c0-2.6-2.1-4.8-4.8-4.8s-4.8,2.1-4.8,4.8v21.6c0,2.6,2.1,4.8,4.8,4.8
		S50.5,125.5,50.5,122.9z"/>
	<path id="svg_16" class="st1" d="M87.3,88.9v-8.2c0-2.6-2.1-4.8-4.8-4.8c-2.6,0-4.8,2.1-4.8,4.8v8.2c0,2.6,2.1,4.8,4.8,4.8
		C85.2,93.6,87.3,91.5,87.3,88.9z"/>
	<path id="svg_17" class="st1" d="M233,85.5V31c0-2.6-2.1-4.8-4.8-4.8c-2.6,0-4.8,2.1-4.8,4.8v54.5c0,2.6,2.1,4.8,4.8,4.8
		C230.9,90.3,233,88.1,233,85.5z"/>
	<path id="svg_18" class="st1" d="M214.6,76.3V54.7c0-2.6-2.1-4.8-4.8-4.8s-4.8,2.1-4.8,4.8v21.6c0,2.6,2.1,4.8,4.8,4.8
		S214.6,78.9,214.6,76.3z"/>
	<path id="svg_19" class="st1" d="M251.5,76.3V64.2c0-2.6-2.1-4.8-4.8-4.8c-2.6,0-4.8,2.1-4.8,4.8v12.1c0,2.6,2.1,4.8,4.8,4.8
		C249.4,81.1,251.5,78.9,251.5,76.3z"/>
	<path id="svg_21" class="st1" d="M68.9,54.4V42.6c0-2.6-2.1-4.8-4.8-4.8c-2.6,0-4.8,2.1-4.8,4.8v11.8c0,2.6,2.1,4.8,4.8,4.8
		C66.8,59.2,68.9,57.1,68.9,54.4z"/>
	<path id="svg_22" class="st1" d="M251.5,42.4v-8.2c0-2.6-2.1-4.8-4.8-4.8c-2.6,0-4.8,2.1-4.8,4.8v8.3c0,2.6,2.1,4.8,4.8,4.8
		C249.4,47.3,251.5,45.1,251.5,42.4L251.5,42.4z"/>
</g>
</svg>
