<svg height="24" version="1.1" width="24" 
    xmlns="http://www.w3.org/2000/svg">
    <g transform="translate(0 -1028.4)">
        <path d="m12 1034.4c0 1.1-0.895 2-2 2h-5-3c-1.1046 0-2 0.9-2 2v8 3c0 1.1 0.89543 2 2 2h20c1.105 0 2-0.9 2-2v-3-10c0-1.1-0.895-2-2-2h-10z" fill="#2980b9"/>
        <path d="m2 2c-1.1046 0-2 0.8954-2 2v5h10v1h14v-5c0-1.1046-0.895-2-2-2h-10.281c-0.346-0.5969-0.979-1-1.719-1h-8z" fill="#2980b9" transform="translate(0 1028.4)"/>
        <path d="m12 1033.4c0 1.1-0.895 2-2 2h-5-3c-1.1046 0-2 0.9-2 2v8 3c0 1.1 0.89543 2 2 2h20c1.105 0 2-0.9 2-2v-3-10c0-1.1-0.895-2-2-2h-10z" fill="#3498db"/>
    </g>
</svg>